# Blender v3.4.1 OBJ File: 'astronaut2.blend'
# www.blender.org
mtllib crystal1.mtl
o Cube.003_Cube
v 0.882160 -0.539198 0.103973
v 0.789501 -0.139936 -0.758200
v -0.423230 0.249539 -0.602521
v 1.034919 0.409006 0.212879
v 0.917470 0.201785 0.688014
v 0.583833 -0.693842 -0.666419
v 0.287328 0.089643 1.158625
v -0.839906 -0.411071 0.233787
v -0.121739 0.829626 0.453175
v 0.580615 -0.544975 -0.793529
v 0.990931 0.452432 -0.342475
v 0.133459 0.882618 -0.179166
v 0.450232 -0.969900 -0.191034
v 0.740216 0.810847 0.827021
v -0.322395 -0.043415 -0.810201
v -0.384525 -0.566932 -0.857241
v 0.421251 -0.749650 0.325813
v -0.712262 -0.789804 -0.105707
v 0.801061 0.900981 -0.145609
v -0.675078 0.116695 0.142883
v 0.288193 -0.984736 0.218117
v -0.097910 -0.742506 0.519919
v 0.686998 0.357474 -0.676326
v -0.456466 -0.725706 -0.669381
v -0.671073 -0.490399 -0.345174
v 1.106462 0.325640 0.512787
v -0.467544 0.428696 0.467220
v 0.064229 -0.355085 1.039279
v 0.575908 0.673584 0.994604
v 0.195903 0.726081 -0.493677
v 0.498697 1.046970 0.526605
v -0.383419 -0.408161 0.769758
v -0.426067 -0.355124 0.341634
v -0.755276 0.014686 0.368986
v -0.413432 -0.255426 -0.345737
v -0.735627 0.169727 -0.699955
v 0.295673 0.164371 0.430250
v -0.193858 1.110440 0.753335
v 0.308309 0.264069 -0.257121
v -0.174208 1.265482 -0.315607
v -0.086494 -0.020102 -0.305596
v -0.525250 0.580333 -0.555930
v -0.099130 -0.119801 0.381776
v -0.544899 0.425291 0.513011
v -0.413641 -0.257078 -0.334345
v -0.739343 0.140403 -0.497778
v 0.308099 0.262417 -0.245729
v -0.177925 1.236157 -0.113430
v -0.528966 0.551009 -0.353753
v -0.086704 -0.021755 -0.294204
v -0.571132 1.801307 0.015648
v -0.581718 1.717775 0.591556
v -0.814962 1.262539 0.431877
v -0.804376 1.346070 -0.144032
v -0.421607 -0.319937 0.099037
v -0.185891 1.173299 0.319952
v -0.536933 0.488150 0.079629
v -0.094670 -0.084614 0.139178
v -0.747310 0.077544 -0.064396
v 0.300133 0.199558 0.187653
v -0.576425 1.759541 0.303602
v -0.809669 1.304304 0.143922
v -0.144876 -0.062124 -0.312764
v -0.582466 0.351969 0.487292
v -0.562817 0.507011 -0.581649
v -0.157511 -0.161822 0.374607
v -0.145085 -0.063777 -0.301372
v -0.566533 0.477686 -0.379472
v -0.153052 -0.126636 0.132010
v -0.574500 0.414828 0.053910
v -1.060668 0.305392 -0.093372
v -1.055083 0.349460 -0.397204
v -0.933931 0.585921 -0.314263
v -0.939516 0.541852 -0.010431
vt 0.000000 0.000000
vt 0.000000 0.000000
vt 0.000000 0.000000
vt 0.000000 0.000000
vt 0.000000 0.000000
vt 0.000000 0.000000
vt 0.000000 0.000000
vt 0.000000 0.000000
vt 0.000000 0.000000
vt 0.000000 0.000000
vt 0.000000 0.000000
vt 0.000000 0.000000
vt 0.000000 0.000000
vt 0.000000 0.000000
vt 0.000000 0.000000
vt 0.000000 0.000000
vt 0.000000 0.000000
vt 0.000000 0.000000
vt 0.000000 0.000000
vt 0.000000 0.000000
vt 0.000000 0.000000
vt 0.000000 0.000000
vt 0.000000 0.000000
vt 0.000000 0.000000
vt 0.000000 0.000000
vt 0.000000 0.000000
vt 0.000000 0.000000
vt 0.000000 0.000000
vt 0.000000 0.000000
vt 0.000000 0.000000
vt 0.000000 0.000000
vt 0.000000 0.000000
vt 0.375000 0.202716
vt 0.625000 0.202716
vt 0.625000 0.250000
vt 0.375000 0.250000
vt 0.375000 0.343681
vt 0.625000 0.343681
vt 0.625000 0.500000
vt 0.375000 0.500000
vt 0.375000 0.648642
vt 0.625000 0.648642
vt 0.625000 0.750000
vt 0.375000 0.750000
vt 0.375000 0.923048
vt 0.625000 0.923048
vt 0.625000 1.000000
vt 0.375000 1.000000
vt 0.218681 0.648642
vt 0.218681 0.750000
vt 0.798048 0.648642
vt 0.875000 0.648642
vt 0.875000 0.750000
vt 0.798048 0.750000
vt 0.781319 0.648642
vt 0.781319 0.750000
vt 0.781319 0.750000
vt 0.781319 0.648642
vt 0.201952 0.648642
vt 0.201952 0.750000
vt 0.625000 0.906319
vt 0.375000 0.906319
vt 0.375000 0.326952
vt 0.625000 0.326952
vt 0.201952 0.500000
vt 0.218681 0.500000
vt 0.218681 0.547284
vt 0.201952 0.547284
vt 0.781319 0.500000
vt 0.781319 0.547284
vt 0.625000 0.547284
vt 0.798048 0.500000
vt 0.875000 0.500000
vt 0.875000 0.547284
vt 0.798048 0.547284
vt 0.375000 0.547284
vt 0.375000 0.101358
vt 0.625000 0.101358
vt 0.625000 0.648642
vt 0.625000 0.750000
vt 0.781319 0.547284
vt 0.625000 0.547284
vt 0.625000 0.906319
vt 0.375000 0.000000
vt 0.625000 0.000000
vt 0.625000 0.101358
vt 0.625000 0.202716
vt 0.125000 0.547284
vt 0.125000 0.648642
vt 0.125000 0.500000
vt 0.125000 0.750000
vt 0.798048 0.547284
vt 0.875000 0.547284
vt 0.875000 0.648642
vt 0.798048 0.648642
vn -0.8792 -0.2180 -0.4238
vn 0.0593 -0.7735 -0.6310
vn 0.0638 0.0818 -0.9946
vn -0.2424 0.5042 -0.8289
vn -0.2868 -0.8921 0.3491
vn -0.2013 -0.9728 -0.1150
vn 0.9136 0.4046 -0.0407
vn -0.7922 0.1472 -0.5923
vn -0.8595 0.1147 -0.4981
vn -0.1345 -0.9759 -0.1720
vn -0.7161 0.6576 -0.2339
vn 0.7490 -0.4318 0.5026
vn -0.7068 0.6981 -0.1144
vn -0.3247 0.9444 -0.0519
vn -0.9068 0.3287 0.2640
vn -0.0145 0.7804 0.6251
vn 0.6761 0.0107 0.7367
vn 0.7817 0.6235 -0.0132
vn 0.8687 0.4853 0.0993
vn 0.6905 0.0541 0.7213
vn -0.3234 0.7130 0.6222
vn 0.6053 -0.0766 0.7923
vn 0.6209 0.7760 0.1108
vn 0.7920 0.6103 -0.0193
vn 0.5804 -0.4697 0.6652
vn -0.5182 0.0306 0.8547
vn -0.4827 0.4496 0.7516
vn -0.4871 0.4464 0.7507
vn 0.0611 0.1744 -0.9828
vn -0.5081 -0.6635 0.5491
vn 0.5529 0.5198 -0.6512
vn 0.6784 0.2533 -0.6896
vn -0.7524 0.6441 -0.1382
vn 0.8050 -0.3751 -0.4596
vn 0.0280 -0.8678 -0.4961
vn -0.0384 0.4021 -0.9148
vn 0.0518 0.0602 -0.9968
vn -0.0158 0.9756 -0.2190
vn -0.9597 -0.0827 -0.2685
vn -0.9311 0.2441 -0.2711
vn 0.5964 -0.5379 0.5959
vn -0.6048 0.2163 0.7664
vn 0.0220 -0.6489 -0.7605
vn 0.8876 -0.3741 -0.2686
vn -0.0022 0.8951 -0.4459
vn -0.4873 0.7393 -0.4647
vn 0.2247 0.6562 -0.7203
vn -0.8718 -0.1548 -0.4647
vn -0.9311 0.2075 -0.3000
vn -0.7524 0.1557 0.6400
vn -0.2932 -0.7202 0.6288
vn 0.7500 -0.6414 -0.1617
vn 0.1934 -0.8144 0.5471
vn -0.5013 -0.7502 0.4311
vn 0.5250 -0.7720 0.3584
vn 0.2907 -0.5296 0.7969
vn 0.7722 -0.5677 0.2852
vn 0.9623 -0.1922 -0.1924
vn 0.9714 -0.1775 -0.1575
vn 0.5520 -0.5322 0.6419
vn -0.7465 -0.6565 -0.1089
vn 0.3428 0.0161 -0.9393
vn 0.8962 0.4365 0.0798
vn -0.0731 -0.2167 0.9735
vn 0.5894 -0.8009 -0.1053
vn -0.8957 0.4422 0.0477
vn -0.9481 -0.3119 -0.0627
vn 0.0046 -0.2888 0.9574
vn 0.4206 -0.0926 -0.9025
vn 0.0966 0.2850 -0.9536
vn 0.8272 0.5537 0.0955
vn -0.4715 -0.0669 0.8793
vn -0.5755 -0.8078 -0.1277
vn 0.4937 -0.1673 -0.8534
vn -0.0320 -0.2493 0.9679
vn -0.2400 -0.2095 0.9479
vn -0.0600 0.3576 -0.9319
vn 0.3029 0.9424 0.1422
usemtl Rock
s off
f 24/1/1 18/2/1 25/3/1
f 24/1/2 16/4/2 10/5/2
f 16/4/3 15/6/3 10/5/3
f 3/7/4 30/8/4 15/6/4
f 18/2/5 21/9/5 22/10/5
f 24/1/6 13/11/6 21/9/6
f 4/12/7 11/13/7 19/14/7
f 3/7/8 15/6/8 16/4/8
f 16/4/9 25/3/9 3/7/9
f 21/9/10 18/2/10 24/1/10
f 12/15/11 20/16/11 9/17/11
f 26/18/12 5/19/12 1/20/12
f 12/15/13 3/7/13 20/16/13
f 31/21/14 12/15/14 9/17/14
f 20/16/15 8/22/15 27/23/15
f 29/24/16 14/25/16 31/21/16
f 29/24/17 5/19/17 26/18/17
f 4/12/18 26/18/18 11/13/18
f 19/14/19 14/25/19 4/12/19
f 29/24/20 26/18/20 14/25/20
f 29/24/21 31/21/21 9/17/21
f 7/26/22 5/19/22 29/24/22
f 19/14/23 31/21/23 14/25/23
f 26/18/24 4/12/24 14/25/24
f 28/27/25 5/19/25 7/26/25
f 7/26/26 32/28/26 28/27/26
f 29/24/27 9/17/27 7/26/27
f 7/26/28 9/17/28 27/23/28
f 23/29/29 2/30/29 15/6/29
f 8/22/30 18/2/30 22/10/30
f 19/14/31 11/13/31 23/29/31
f 11/13/32 2/30/32 23/29/32
f 9/17/33 20/16/33 27/23/33
f 10/5/34 2/30/34 6/31/34
f 24/1/35 6/31/35 13/11/35
f 23/29/36 15/6/36 30/8/36
f 2/30/37 10/5/37 15/6/37
f 12/15/38 31/21/38 19/14/38
f 8/22/39 25/3/39 18/2/39
f 3/7/40 8/22/40 20/16/40
f 28/27/41 17/32/41 5/19/41
f 7/26/42 27/23/42 32/28/42
f 10/5/43 6/31/43 24/1/43
f 2/30/44 1/20/44 6/31/44
f 30/8/45 12/15/45 19/14/45
f 12/15/46 30/8/46 3/7/46
f 23/29/47 30/8/47 19/14/47
f 24/1/48 25/3/48 16/4/48
f 8/22/49 3/7/49 25/3/49
f 8/22/50 32/28/50 27/23/50
f 22/10/51 28/27/51 32/28/51
f 13/11/52 6/31/52 1/20/52
f 17/32/53 28/27/53 22/10/53
f 8/22/54 22/10/54 32/28/54
f 17/32/55 13/11/55 1/20/55
f 17/32/56 22/10/56 21/9/56
f 21/9/57 13/11/57 17/32/57
f 1/20/58 2/30/58 11/13/58
f 1/20/59 11/13/59 26/18/59
f 5/19/60 17/32/60 1/20/60
usemtl Crystal
f 45/33/61 46/34/61 36/35/61 35/36/61
f 41/37/62 42/38/62 40/39/62 39/40/62
f 60/41/63 56/42/63 38/43/63 37/44/63
f 66/45/64 64/46/64 34/47/64 33/48/64
f 58/49/65 60/41/65 37/44/65 43/50/65
f 70/51/66 59/52/66 34/53/66 64/54/66
f 57/55/67 44/56/67 53/57/67 62/58/67
f 69/59/65 58/49/65 43/50/65 66/60/65
f 37/44/68 38/43/68 44/61/68 43/62/68
f 63/63/69 65/64/69 42/38/69 41/37/69
f 63/65/65 41/66/65 50/67/65 67/68/65
f 40/39/66 42/69/66 49/70/66 48/71/66
f 65/72/66 36/73/66 46/74/66 68/75/66
f 41/66/65 39/40/65 47/76/65 50/67/65
f 39/40/63 40/39/63 48/71/63 47/76/63
f 55/77/61 59/78/61 46/34/61 45/33/61
f 61/79/66 62/58/66 53/57/66 52/80/66
f 48/71/70 49/70/70 54/81/70 51/82/70
f 56/42/71 48/71/71 51/82/71 61/79/71
f 44/61/72 38/43/72 52/80/72 53/83/72
f 38/43/71 56/42/71 61/79/71 52/80/71
f 51/82/66 54/81/66 62/58/66 61/79/66
f 33/84/61 34/85/61 59/78/61 55/77/61
f 67/68/65 50/67/65 58/49/65 69/59/65
f 49/70/67 57/55/67 62/58/67 54/81/67
f 46/34/73 59/78/73 71/86/73 72/87/73
f 50/67/65 47/76/65 60/41/65 58/49/65
f 47/76/63 48/71/63 56/42/63 60/41/63
f 49/70/66 68/75/66 70/51/66 57/55/66
f 45/88/65 67/68/65 69/59/65 55/89/65
f 42/69/66 65/72/66 68/75/66 49/70/66
f 35/90/65 63/65/65 67/68/65 45/88/65
f 35/36/74 36/35/74 65/64/74 63/63/74
f 55/89/65 69/59/65 66/60/65 33/91/65
f 57/55/66 70/51/66 64/54/66 44/56/66
f 43/62/75 44/61/75 64/46/75 66/45/75
f 73/92/66 72/93/66 71/94/66 74/95/66
f 59/52/76 70/51/76 74/95/76 71/94/76
f 68/75/77 46/74/77 72/93/77 73/92/77
f 70/51/78 68/75/78 73/92/78 74/95/78
