# Blender 3.4.1
# www.blender.org
mtllib crystal2.mtl
o Cube.005
v -0.283653 0.603168 0.797170
v 0.611140 0.766197 0.507160
v 0.679379 -0.227576 -0.301792
v -0.340081 1.079936 -0.041755
v -0.805675 0.839364 0.046763
v 0.509444 0.361963 0.935864
v -1.178668 0.161374 -0.133056
v -0.130453 -0.953484 0.054108
v -0.361502 0.139362 -0.870840
v 0.646821 0.428729 0.813397
v 0.216951 1.120819 -0.024967
v 0.225010 0.468816 -0.747334
v 0.040714 0.081148 1.082436
v -0.866580 0.883453 -0.598252
v 0.844844 -0.217808 0.032343
v 0.859622 -0.462094 0.501650
v -0.446133 0.074464 0.800626
v 0.153786 -0.934988 0.494397
v 0.088411 1.087420 -0.533263
v -0.025257 -0.596638 -0.364896
v -0.337735 -0.122024 0.985587
v -0.554982 -0.424681 0.585540
v 0.585909 0.844914 -0.000575
v 0.673484 -0.608995 0.598854
v 0.406657 -0.758650 0.262783
v -0.653140 1.079904 0.021550
v -0.352563 -0.328713 -0.623152
v -1.061177 -0.193891 0.215916
v -1.016532 0.661652 -0.550911
v 0.512440 0.505937 -0.539186
v -0.514233 0.782932 -0.862983
v -0.729635 -0.594546 0.142411
v -0.705564 0.199401 0.296434
v -0.927957 0.414609 0.432831
v -0.833420 0.366412 -0.128111
v -1.126787 0.674331 -0.227385
v -0.234712 0.586295 0.306833
v -0.524403 1.127377 0.753690
v -0.362568 0.753306 -0.117712
v -0.723233 1.387098 0.093473
v -0.620131 0.541669 -0.123401
v -0.975565 0.941422 -0.107152
v -0.492275 0.374658 0.301144
v -0.776735 0.681701 0.553065
v -0.831301 0.363644 -0.121075
v -1.089180 0.625208 -0.102513
v -0.360449 0.750538 -0.110676
v -0.685627 1.337975 0.218345
v -0.937959 0.892299 0.017720
v -0.618012 0.538901 -0.116364
v -0.936851 1.662684 0.462662
v -0.829728 1.522755 0.818363
v -0.997387 1.226632 0.685061
v -1.104510 1.366561 0.329360
v -0.750689 0.258345 0.146597
v -0.605015 1.232676 0.486017
v -0.857347 0.787000 0.285392
v -0.537400 0.433602 0.151308
v -1.008569 0.519908 0.165159
v -0.279837 0.645239 0.156996
v -0.883290 1.592720 0.640513
v -1.050948 1.296597 0.507210
v -0.658218 0.510373 -0.124242
v -0.803739 0.634006 0.531594
v -1.002569 0.893727 -0.128622
v -0.530363 0.343362 0.300303
v -0.656099 0.507605 -0.117206
v -0.964963 0.844604 -0.003750
v -0.575487 0.402306 0.150467
v -0.884351 0.739305 0.263922
v -1.226637 0.650598 0.239870
v -1.283152 0.724421 0.052212
v -1.196066 0.878234 0.121452
v -1.139551 0.804411 0.309110
v -0.301776 0.428526 0.577460
v 0.014499 0.942569 0.407375
v -0.449768 0.280553 -0.275710
v -0.215645 0.712453 -0.919402
v 0.589631 -0.265250 0.543164
v 1.624416 0.684464 0.450004
v 0.441640 -0.413223 -0.310006
v 1.394272 0.454348 -0.876774
v -0.045974 -0.033717 -0.291246
v 0.387630 0.615735 -0.903428
v 0.102018 0.114256 0.561924
v 0.617774 0.845851 0.423349
v -0.447315 0.283005 -0.261570
v -0.172116 0.755977 -0.668459
v 0.444093 -0.410771 -0.295866
v 1.437801 0.497871 -0.625830
v 0.431159 0.659258 -0.652485
v -0.043521 -0.031265 -0.277106
v 1.994724 1.171583 -0.769281
v 2.118717 1.295562 -0.054459
v 1.449870 1.402793 -0.072169
v 1.325876 1.278815 -0.786991
v -0.354008 0.376301 0.276347
v 1.531108 0.591168 -0.087913
v 0.524466 0.752554 -0.114568
v 0.049786 0.062031 0.260811
v -0.078809 0.849273 -0.130542
v 0.537400 -0.317474 0.242051
v 2.056721 1.233573 -0.411870
v 1.387873 1.340804 -0.429580
v -0.118080 0.022402 -0.288471
v 0.510046 0.863122 0.420496
v 0.279902 0.633006 -0.906281
v 0.029912 0.170376 0.564699
v -0.115627 0.024855 -0.274332
v 0.323431 0.676529 -0.655337
v -0.022320 0.118151 0.263585
v 0.416739 0.769826 -0.117420
v 0.058342 1.288403 -0.302982
v -0.007073 1.222996 -0.680101
v 0.340342 1.167298 -0.670902
v 0.405757 1.232705 -0.293783
vn 0.5382 -0.8411 -0.0528
vn 0.5508 -0.1554 0.8200
vn 0.9755 0.2062 0.0766
vn 0.8939 0.0596 -0.4444
vn -0.3689 -0.6338 0.6798
vn 0.0681 -0.5299 0.8453
vn -0.0717 0.9963 -0.0473
vn 0.7193 -0.6067 -0.3385
vn 0.6346 -0.6919 -0.3443
vn 0.1135 -0.4626 0.8793
vn 0.3948 -0.3911 -0.8314
vn -0.6466 0.4728 0.5986
vn 0.2789 -0.3818 -0.8812
vn 0.1767 0.0539 -0.9828
vn -0.0914 -0.7467 -0.6589
vn -0.5515 0.2000 -0.8099
vn -0.8308 0.5407 0.1323
vn -0.0608 0.9519 -0.3003
vn -0.1961 0.9681 -0.1562
vn -0.8144 0.5718 0.0992
vn -0.5054 -0.1095 -0.8559
vn -0.8812 0.4368 0.1810
vn -0.1455 0.8451 -0.5145
vn -0.0574 0.9572 -0.2836
vn -0.7832 0.2842 0.5530
vn -0.7574 -0.5676 -0.3228
vn -0.6284 -0.3685 -0.6850
vn -0.6271 -0.3736 -0.6835
vn 0.9716 0.2364 -0.0116
vn -0.5130 -0.7775 0.3638
vn 0.5951 0.7780 -0.2016
vn 0.5922 0.8002 0.0946
vn 0.3052 -0.4408 -0.8441
vn 0.2963 0.6588 0.6915
vn 0.4155 -0.2348 0.8788
vn 0.9383 0.2204 -0.2667
vn 0.9779 0.1875 0.0927
vn 0.2950 0.3700 -0.8809
vn 0.4088 -0.8840 -0.2268
vn 0.4326 -0.7371 -0.5192
vn -0.7228 0.2820 0.6309
vn -0.6423 -0.5688 -0.5138
vn 0.6940 -0.1286 0.7084
vn 0.0953 0.7129 0.6948
vn 0.5099 0.3797 -0.7719
vn 0.5924 -0.1228 -0.7962
vn 0.7255 0.5335 -0.4347
vn 0.5824 -0.8063 -0.1033
vn 0.4581 -0.7472 -0.4815
vn -0.4994 -0.7123 -0.4933
vn -0.6297 -0.6094 0.4818
vn -0.0094 0.4750 0.8799
vn -0.6333 -0.1857 0.7513
vn -0.4047 -0.7892 0.4620
vn -0.4963 0.1581 0.8536
vn -0.8720 -0.0206 0.4891
vn -0.4470 0.4699 0.7612
vn 0.0229 0.8397 0.5426
vn -0.0117 0.8494 0.5277
vn -0.7607 0.2377 0.6040
vn -0.7129 -0.6986 -0.0601
vn 0.0616 0.2551 -0.9650
vn 0.8591 0.5084 -0.0587
vn 0.2164 -0.4264 0.8783
vn 0.5748 -0.6876 -0.4436
vn -0.8665 0.3170 0.3856
vn -0.9102 -0.3971 0.1179
vn 0.2899 -0.4840 0.8256
vn 0.1520 0.1506 -0.9768
vn -0.1917 0.4911 -0.8498
vn 0.7916 0.6110 0.0020
vn -0.1993 -0.3062 0.9309
vn -0.5470 -0.8220 -0.1586
vn 0.2396 0.0759 -0.9679
vn 0.2558 -0.4521 0.8545
vn 0.0489 -0.4329 0.9001
vn -0.3392 0.5391 -0.7709
vn 0.2832 0.9185 0.2760
vn -0.8425 0.5360 0.0532
vn -0.1760 -0.4987 -0.8487
vn 0.6766 -0.7362 0.0103
vn 0.0814 0.2005 0.9763
vn -0.5911 -0.7712 0.2363
vn 0.1603 0.9675 -0.1956
vn -0.5731 0.8184 -0.0425
vn 0.0332 0.1063 0.9938
vn -0.2411 -0.5917 -0.7692
vn -0.0066 -0.2030 -0.9792
vn 0.7682 -0.6398 -0.0223
vn 0.0748 0.5982 0.7979
vn -0.9369 0.3337 0.1046
vn -0.2731 -0.6699 -0.6904
vn 0.0618 0.1526 0.9864
vn 0.0324 0.3565 0.9337
vn 0.0213 -0.0324 -0.9992
vn 0.9857 -0.0392 -0.1642
vt 0.000000 0.000000
vt 0.000000 0.000000
vt 0.000000 0.000000
vt 0.000000 0.000000
vt 0.000000 0.000000
vt 0.000000 0.000000
vt 0.000000 0.000000
vt 0.000000 0.000000
vt 0.000000 0.000000
vt 0.000000 0.000000
vt 0.000000 0.000000
vt 0.000000 0.000000
vt 0.000000 0.000000
vt 0.000000 0.000000
vt 0.000000 0.000000
vt 0.000000 0.000000
vt 0.000000 0.000000
vt 0.000000 0.000000
vt 0.000000 0.000000
vt 0.000000 0.000000
vt 0.000000 0.000000
vt 0.000000 0.000000
vt 0.000000 0.000000
vt 0.000000 0.000000
vt 0.000000 0.000000
vt 0.000000 0.000000
vt 0.000000 0.000000
vt 0.000000 0.000000
vt 0.000000 0.000000
vt 0.000000 0.000000
vt 0.000000 0.000000
vt 0.000000 0.000000
vt 0.375000 1.000000
vt 0.375000 0.000000
vt 0.125000 0.750000
vt 0.625000 1.000000
vt 0.875000 0.750000
vt 0.625000 0.000000
vt 0.125000 0.500000
vt 0.375000 0.250000
vt 0.875000 0.500000
vt 0.625000 0.250000
vt 0.375000 0.750000
vt 0.625000 0.750000
vt 0.375000 0.500000
vt 0.625000 0.500000
vt 0.375000 0.343681
vt 0.218681 0.500000
vt 0.625000 0.343681
vt 0.781319 0.500000
vt 0.218681 0.750000
vt 0.375000 0.906319
vt 0.781319 0.750000
vt 0.625000 0.906319
vt 0.375000 0.202716
vt 0.125000 0.547284
vt 0.625000 0.202716
vt 0.875000 0.547284
vt 0.375000 0.547284
vt 0.625000 0.547284
vt 0.781319 0.547284
vt 0.218681 0.547284
vt 0.625000 0.547284
vt 0.625000 0.750000
vt 0.781319 0.750000
vt 0.625000 0.906319
vt 0.781319 0.547284
vt 0.375000 0.101358
vt 0.125000 0.648642
vt 0.625000 0.648642
vt 0.781319 0.648642
vt 0.218681 0.648642
vt 0.625000 0.101358
vt 0.875000 0.648642
vt 0.375000 0.648642
vt 0.625000 0.648642
vt 0.781319 0.648642
vt 0.201952 0.500000
vt 0.375000 0.326952
vt 0.798048 0.750000
vt 0.625000 0.923048
vt 0.798048 0.500000
vt 0.625000 0.326952
vt 0.201952 0.750000
vt 0.375000 0.923048
vt 0.201952 0.547284
vt 0.798048 0.547284
vt 0.201952 0.648642
vt 0.798048 0.648642
vt 0.625000 0.101358
vt 0.875000 0.648642
vt 0.625000 0.202716
vt 0.875000 0.547284
vt 0.798048 0.547284
vt 0.798048 0.648642
vt 0.375000 1.000000
vt 0.375000 0.000000
vt 0.125000 0.750000
vt 0.625000 1.000000
vt 0.875000 0.750000
vt 0.625000 0.000000
vt 0.125000 0.500000
vt 0.375000 0.250000
vt 0.875000 0.500000
vt 0.625000 0.250000
vt 0.375000 0.750000
vt 0.625000 0.750000
vt 0.375000 0.500000
vt 0.625000 0.500000
vt 0.375000 0.343681
vt 0.218681 0.500000
vt 0.625000 0.343681
vt 0.781319 0.500000
vt 0.218681 0.750000
vt 0.375000 0.906319
vt 0.781319 0.750000
vt 0.625000 0.906319
vt 0.375000 0.202716
vt 0.125000 0.547284
vt 0.625000 0.202716
vt 0.875000 0.547284
vt 0.375000 0.547284
vt 0.625000 0.547284
vt 0.781319 0.547284
vt 0.218681 0.547284
vt 0.625000 0.547284
vt 0.625000 0.750000
vt 0.781319 0.750000
vt 0.625000 0.906319
vt 0.781319 0.547284
vt 0.375000 0.101358
vt 0.125000 0.648642
vt 0.625000 0.648642
vt 0.781319 0.648642
vt 0.218681 0.648642
vt 0.625000 0.101358
vt 0.875000 0.648642
vt 0.375000 0.648642
vt 0.625000 0.648642
vt 0.781319 0.648642
vt 0.201952 0.500000
vt 0.375000 0.326952
vt 0.798048 0.750000
vt 0.625000 0.923048
vt 0.798048 0.500000
vt 0.625000 0.326952
vt 0.201952 0.750000
vt 0.375000 0.923048
vt 0.201952 0.547284
vt 0.798048 0.547284
vt 0.201952 0.648642
vt 0.798048 0.648642
vt 0.625000 0.101358
vt 0.875000 0.648642
vt 0.625000 0.202716
vt 0.875000 0.547284
vt 0.798048 0.547284
vt 0.798048 0.648642
s 0
usemtl Rock
f 24/24/1 18/18/1 25/25/1
f 24/24/2 16/16/2 10/10/2
f 16/16/3 15/15/3 10/10/3
f 3/3/4 30/30/4 15/15/4
f 18/18/5 21/21/5 22/22/5
f 24/24/6 13/13/6 21/21/6
f 4/4/7 11/11/7 19/19/7
f 3/3/8 15/15/8 16/16/8
f 16/16/9 25/25/9 3/3/9
f 21/21/10 18/18/10 24/24/10
f 12/12/11 20/20/11 9/9/11
f 26/26/12 5/5/12 1/1/12
f 12/12/13 3/3/13 20/20/13
f 31/31/14 12/12/14 9/9/14
f 20/20/15 8/8/15 27/27/15
f 29/29/16 14/14/16 31/31/16
f 29/29/17 5/5/17 26/26/17
f 4/4/18 26/26/18 11/11/18
f 19/19/19 14/14/19 4/4/19
f 29/29/20 26/26/20 14/14/20
f 29/29/21 31/31/21 9/9/21
f 7/7/22 5/5/22 29/29/22
f 19/19/23 31/31/23 14/14/23
f 26/26/24 4/4/24 14/14/24
f 28/28/25 5/5/25 7/7/25
f 7/7/26 32/32/26 28/28/26
f 29/29/27 9/9/27 7/7/27
f 7/7/28 9/9/28 27/27/28
f 23/23/29 2/2/29 15/15/29
f 8/8/30 18/18/30 22/22/30
f 19/19/31 11/11/31 23/23/31
f 11/11/32 2/2/32 23/23/32
f 9/9/33 20/20/33 27/27/33
f 10/10/34 2/2/34 6/6/34
f 24/24/35 6/6/35 13/13/35
f 23/23/36 15/15/36 30/30/36
f 2/2/37 10/10/37 15/15/37
f 12/12/38 31/31/38 19/19/38
f 8/8/39 25/25/39 18/18/39
f 3/3/40 8/8/40 20/20/40
f 28/28/41 17/17/41 5/5/41
f 7/7/42 27/27/42 32/32/42
f 10/10/43 6/6/43 24/24/43
f 2/2/44 1/1/44 6/6/44
f 30/30/45 12/12/45 19/19/45
f 12/12/46 30/30/46 3/3/46
f 23/23/47 30/30/47 19/19/47
f 24/24/48 25/25/48 16/16/48
f 8/8/49 3/3/49 25/25/49
f 8/8/50 32/32/50 27/27/50
f 22/22/51 28/28/51 32/32/51
f 13/13/52 6/6/52 1/1/52
f 17/17/53 28/28/53 22/22/53
f 8/8/54 22/22/54 32/32/54
f 17/17/55 13/13/55 1/1/55
f 17/17/56 22/22/56 21/21/56
f 21/21/57 13/13/57 17/17/57
f 1/1/58 2/2/58 11/11/58
f 1/1/59 11/11/59 26/26/59
f 5/5/60 17/17/60 1/1/60
usemtl Crystal
f 45/55/61 46/57/61 36/42/61 35/40/61
f 41/47/62 42/49/62 40/46/62 39/45/62
f 60/75/63 56/70/63 38/44/63 37/43/63
f 66/85/64 64/81/64 34/36/64 33/33/64
f 58/72/65 60/75/65 37/43/65 43/51/65
f 70/89/66 59/74/66 34/37/66 64/80/66
f 57/71/67 44/53/67 53/65/67 62/77/67
f 69/88/65 58/72/65 43/51/65 66/84/65
f 37/43/68 38/44/68 44/54/68 43/52/68
f 63/79/69 65/83/69 42/49/69 41/47/69
f 63/78/65 41/48/65 50/62/65 67/86/65
f 40/46/66 42/50/66 49/61/66 48/60/66
f 65/82/66 36/41/66 46/58/66 68/87/66
f 41/48/65 39/45/65 47/59/65 50/62/65
f 39/45/63 40/46/63 48/60/63 47/59/63
f 55/68/61 59/73/61 46/57/61 45/55/61
f 61/76/66 62/77/66 53/65/66 52/64/66
f 48/60/70 49/61/70 54/67/70 51/63/70
f 56/70/71 48/60/71 51/63/71 61/76/71
f 44/54/72 38/44/72 52/64/72 53/66/72
f 38/44/71 56/70/71 61/76/71 52/64/71
f 51/63/66 54/67/66 62/77/66 61/76/66
f 33/34/61 34/38/61 59/73/61 55/68/61
f 67/86/65 50/62/65 58/72/65 69/88/65
f 49/61/67 57/71/67 62/77/67 54/67/67
f 46/57/73 59/73/73 71/90/73 72/92/73
f 50/62/65 47/59/65 60/75/65 58/72/65
f 47/59/63 48/60/63 56/70/63 60/75/63
f 49/61/66 68/87/66 70/89/66 57/71/66
f 45/56/65 67/86/65 69/88/65 55/69/65
f 42/50/66 65/82/66 68/87/66 49/61/66
f 35/39/65 63/78/65 67/86/65 45/56/65
f 35/40/74 36/42/74 65/83/74 63/79/74
f 55/69/65 69/88/65 66/84/65 33/35/65
f 57/71/66 70/89/66 64/80/66 44/53/66
f 43/52/75 44/54/75 64/81/75 66/85/75
f 73/94/66 72/93/66 71/91/66 74/95/66
f 59/74/76 70/89/76 74/95/76 71/91/76
f 68/87/77 46/58/77 72/93/77 73/94/77
f 70/89/78 68/87/78 73/94/78 74/95/78
f 87/118/79 88/120/79 78/105/79 77/103/79
f 83/110/80 84/112/80 82/109/80 81/108/80
f 102/138/81 98/133/81 80/107/81 79/106/81
f 108/148/82 106/144/82 76/99/82 75/96/82
f 100/135/83 102/138/83 79/106/83 85/114/83
f 112/152/84 101/137/84 76/100/84 106/143/84
f 99/134/85 86/116/85 95/128/85 104/140/85
f 111/151/83 100/135/83 85/114/83 108/147/83
f 79/106/86 80/107/86 86/117/86 85/115/86
f 105/142/87 107/146/87 84/112/87 83/110/87
f 105/141/83 83/111/83 92/125/83 109/149/83
f 82/109/84 84/113/84 91/124/84 90/123/84
f 107/145/84 78/104/84 88/121/84 110/150/84
f 83/111/83 81/108/83 89/122/83 92/125/83
f 81/108/81 82/109/81 90/123/81 89/122/81
f 97/131/79 101/136/79 88/120/79 87/118/79
f 103/139/84 104/140/84 95/128/84 94/127/84
f 90/123/88 91/124/88 96/130/88 93/126/88
f 98/133/89 90/123/89 93/126/89 103/139/89
f 86/117/90 80/107/90 94/127/90 95/129/90
f 80/107/89 98/133/89 103/139/89 94/127/89
f 93/126/84 96/130/84 104/140/84 103/139/84
f 75/97/79 76/101/79 101/136/79 97/131/79
f 109/149/83 92/125/83 100/135/83 111/151/83
f 91/124/85 99/134/85 104/140/85 96/130/85
f 88/120/91 101/136/91 113/153/91 114/155/91
f 92/125/83 89/122/83 102/138/83 100/135/83
f 89/122/81 90/123/81 98/133/81 102/138/81
f 91/124/84 110/150/84 112/152/84 99/134/84
f 87/119/83 109/149/83 111/151/83 97/132/83
f 84/113/84 107/145/84 110/150/84 91/124/84
f 77/102/83 105/141/83 109/149/83 87/119/83
f 77/103/92 78/105/92 107/146/92 105/142/92
f 97/132/83 111/151/83 108/147/83 75/98/83
f 99/134/84 112/152/84 106/143/84 86/116/84
f 85/115/93 86/117/93 106/144/93 108/148/93
f 115/157/84 114/156/84 113/154/84 116/158/84
f 101/137/94 112/152/94 116/158/94 113/154/94
f 110/150/95 88/121/95 114/156/95 115/157/95
f 112/152/96 110/150/96 115/157/96 116/158/96
